<svg xmlns="http://www.w3.org/2000/svg" viewBox="0 0 139 20"><defs><style>.cls-1{fill:#f0b90b;}</style></defs><g id="Layer_2" data-name="Layer 2"><g id="Layer_1-2" data-name="Layer 1"><path class="cls-1" d="M2.92,10,1.46,12.26,0,10,1.46,7.74ZM6.47,4.52,9,8.4l1.45-2.26L6.47,0l-4,6.12L4,8.38Zm5,3.22L10,10l1.46,2.26L12.93,10Zm-5,7.74L4,11.62,2.5,13.88l4,6.12,4-6.12L9,11.62Zm0-3.22L7.93,10,6.47,7.74,5,10Zm15.42.22v0a2.72,2.72,0,0,0-1.33-2.69,2.89,2.89,0,0,0,.93-2.36v0c0-1.71-.89-2.83-2.34-2.83h-3.3V15.48h3.37C20.83,15.48,21.89,14.48,21.89,12.48ZM19.94,7.79A1,1,0,0,1,18.82,9H17.38V6.64h1.54c.66,0,1,.41,1,1.12Zm.4,4.38c0,.81-.41,1.19-1.1,1.19H17.38V11h1.81a1,1,0,0,1,1.15,1.19Zm4.82,3.31v-11H23.6v11Zm8.39,0v-11H32v6.77L28.69,4.52H27.25v11h1.53v-7l3.45,7Zm8.66,0-3-11H37.73l-3,11.05h1.59L36.93,13h3l.64,2.46ZM39.37,10.9H37.48l.94-3.54Zm10.28,4.58v-11H48.11v6.77L44.78,4.52H43.34v11h1.54v-7l3.43,7Zm8.05-1.77-1-1.54c-.55.78-1.05,1.28-1.87,1.28-1.21,0-2-1.57-2-3.45v0c0-1.88.86-3.41,2-3.41a2.32,2.32,0,0,1,1.81,1.24l1-1.76a3.17,3.17,0,0,0-2.79-1.69c-2.18,0-3.7,2.54-3.7,5.66v0c0,3.14,1.55,5.64,3.64,5.64A3.28,3.28,0,0,0,57.7,13.71Zm6.66,1.77V13.33H60.51V11h3.34V8.88H60.51V6.67h3.8V4.52H59v11Z"/><path class="cls-1" d="M69.75,7.4A1.17,1.17,0,0,1,70.9,6.1a2.64,2.64,0,0,1,1.91,1.11l.68-1.45a3.24,3.24,0,0,0-2.56-1.38c-1.41,0-2.43,1.29-2.43,3.19s.85,2.72,2.37,3.29c1.31.47,1.59.88,1.59,1.69a1.24,1.24,0,0,1-1.26,1.38A2.88,2.88,0,0,1,69,12.5l-.75,1.38a3.69,3.69,0,0,0,3,1.76c1.49,0,2.53-1.21,2.53-3.28a3,3,0,0,0-2.27-3.22C70.07,8.62,69.75,8.26,69.75,7.4Z"/><path class="cls-1" d="M80.68,7.62v7.86h1.25v-11H80.61L78.46,9.69,76.31,4.52H75v11h1.23V7.67l2.18,5.12h0Z"/><path class="cls-1" d="M87.2,4.45H86.05l-3.11,11h1.27l.72-2.65h3.35L89,15.48h1.32Zm.63,6.67H85.39l1.22-4.38Z"/><path class="cls-1" d="M97.33,15.48l-1.9-4.15c1-.43,1.69-1.52,1.69-3.33,0-2.14-1-3.48-2.63-3.48H91.33v11h1.24V11.67h1.57l1.73,3.81ZM95.84,8.12c0,1.12-.57,1.83-1.46,1.83H92.56V6.29h1.81C95.31,6.29,95.84,6.9,95.84,8.12Z"/><path class="cls-1" d="M101.4,6.31h2.24V4.52H97.9V6.31h2.24v9.17h1.26V6.31Z"/><path class="cls-1" d="M113.46,13.71l-.8-1.26c-.62.88-1.17,1.43-2,1.43-1.35,0-2.33-1.76-2.33-3.9s1-3.88,2.33-3.88a2.5,2.5,0,0,1,2,1.35l.8-1.43a3.23,3.23,0,0,0-2.78-1.71C108.48,4.31,107,6.86,107,10s1.54,5.64,3.61,5.64C111.91,15.67,112.7,14.9,113.46,13.71Z"/><path class="cls-1" d="M119.18,10.86v4.62h1.24v-11h-1.24V9.07H115.8V4.52h-1.24v11h1.24V10.86Z"/><path class="cls-1" d="M125.7,4.45h-1.15l-3.12,11h1.28l.72-2.65h3.34l.72,2.65h1.32Zm.63,6.67h-2.44l1.21-4.38Z"/><path class="cls-1" d="M129.89,4.52v11h1.24v-11Z"/><path class="cls-1" d="M137.77,12.1,134,4.52h-1.15v11h1.23V7.69l3.9,7.79h1v-11h-1.23Z"/></g></g></svg>