<?xml version="1.0" encoding="utf-8"?>
<!-- Generator: Adobe Illustrator 25.3.1, SVG Export Plug-In . SVG Version: 6.00 Build 0)  -->
<svg version="1.1" id="Layer_1" xmlns="http://www.w3.org/2000/svg" xmlns:xlink="http://www.w3.org/1999/xlink" x="0px" y="0px"
	 viewBox="0 0 906 131" style="enable-background:new 0 0 906 131;" xml:space="preserve">
<style type="text/css">
	.st0{fill:#F0B90B;}
</style>
<path class="st0" d="M19,42l-9.5,9.5L0,42l9.5-9.5L19,42z M42.2,19l16.3,16.3l9.5-9.5L42.2,0L16.3,25.7l9.5,9.5L42.2,19z M74.8,32.5
	L65.3,42l9.5,9.5l9.5-9.5L74.8,32.5z M42.2,65L25.8,48.8l-9.5,9.5L42.2,84L68,58.3l-9.5-9.5L42.2,65z M42.2,51.5l9.5-9.5l-9.5-9.5
	L32.6,42L42.2,51.5z M142.7,52.4v-0.1c0-6.2-3.3-9.3-8.7-11.3c3.3-1.8,6.1-4.7,6.1-9.9v-0.1c0-7.2-5.8-11.9-15.3-11.9h-21.5V65h22
	C135.8,65,142.7,60.8,142.7,52.4z M130,32.7c0,3.4-2.8,4.9-7.3,4.9h-9.4v-9.7h10c4.3,0,6.7,1.7,6.7,4.7V32.7z M132.6,51.1
	c0,3.4-2.7,5-7.2,5h-12.1V46h11.8c5.2,0,7.5,1.9,7.5,5V51.1z M164,65V19h-10.2V65H164z M218.7,65V19h-10v28.4L187,19h-9.4V65h10
	V35.7L210.1,65H218.7z M275.1,65l-19.8-46.4h-9.4L226.1,65h10.4l4.2-10.3h19.6l4.2,10.3H275.1z M256.6,45.8h-12.3l6.1-14.9
	L256.6,45.8z M323.6,65V19h-10v28.4L291.9,19h-9.4V65h10V35.7L314.9,65H323.6z M376.1,57.6l-6.5-6.5c-3.6,3.3-6.9,5.4-12.2,5.4
	c-7.9,0-13.4-6.6-13.4-14.5v-0.1c0-7.9,5.6-14.3,13.4-14.3c4.6,0,8.3,2,11.8,5.2l6.5-7.4c-4.3-4.2-9.5-7.1-18.2-7.1
	c-14.2,0-24.1,10.7-24.1,23.8v0.1c0,13.2,10.1,23.7,23.7,23.7C366.1,65.8,371.4,62.7,376.1,57.6z M419.5,65v-9h-25.1v-9.7h21.8v-9
	h-21.8V28h24.8v-9h-34.9V65L419.5,65z"/>
<path class="st0" d="M454.6,31.1c0-3.1,2.8-5.5,7.5-5.5c4.2,0,8.4,1.6,12.5,4.7l4.4-6.1c-4.7-3.7-10-5.8-16.7-5.8
	c-9.2,0-15.8,5.4-15.8,13.4c0,8.5,5.5,11.4,15.4,13.8c8.6,2,10.4,3.7,10.4,7.1c0,3.5-3.2,5.8-8.2,5.8c-5.7,0-10.2-2.2-14.6-6
	l-4.9,5.8c5.5,4.9,12.2,7.4,19.2,7.4c9.7,0,16.5-5.1,16.5-13.8c0-7.7-5.1-11.2-14.8-13.5C456.7,36.2,454.6,34.7,454.6,31.1z"/>
<path class="st0" d="M525.9,32v33h8.1V19h-8.6l-14,21.7l-14-21.7h-8.6v46h8V32.2L511,53.7h0.3L525.9,32z"/>
<path class="st0" d="M568.4,18.7h-7.5L540.6,65h8.3l4.7-11.1h21.8l4.7,11.1h8.6L568.4,18.7z M572.5,46.7h-15.9l7.9-18.4L572.5,46.7z
	"/>
<path class="st0" d="M634.4,65L622,47.6c6.5-1.8,11-6.4,11-14c0-9-6.5-14.6-17.1-14.6h-20.6v46h8.1V49h10.2l11.3,16H634.4z
	 M624.7,34.1c0,4.7-3.7,7.7-9.5,7.7h-11.9V26.4h11.8C621.2,26.4,624.7,29,624.7,34.1z"/>
<path class="st0" d="M660.9,26.5h14.6V19h-37.4v7.5h14.6V65h8.2V26.5z"/>
<path class="st0" d="M739.5,57.6l-5.2-5.3c-4,3.7-7.6,6-13.2,6c-8.8,0-15.2-7.4-15.2-16.4s6.4-16.3,15.2-16.3
	c5.3,0,9.2,2.3,12.9,5.7l5.2-6c-4.4-4.2-9.6-7.2-18.1-7.2c-14,0-23.8,10.7-23.8,23.8c0,13.3,10,23.7,23.5,23.7
	C729.4,65.8,734.6,62.6,739.5,57.6z"/>
<path class="st0" d="M776.8,45.6V65h8.1V19h-8.1v19.1h-22V19h-8.1v46h8.1V45.6H776.8z"/>
<path class="st0" d="M819.3,18.7h-7.5L791.5,65h8.3l4.7-11.1h21.8L831,65h8.6L819.3,18.7z M823.4,46.7h-15.9l7.9-18.4L823.4,46.7z"
	/>
<path class="st0" d="M846.6,19v46h8.1V19H846.6z"/>
<path class="st0" d="M898,50.8L873.3,19h-7.5v46h8V32.3L899.2,65h6.8V19h-8V50.8z"/>
</svg>
