<svg id="Layer_1" data-name="Layer 1" xmlns="http://www.w3.org/2000/svg" viewBox="0 0 906 84"><path d="M82.12,24.3a63.52,63.52,0,0,1,20.13,0l58.34,11c3.44.65,5.33,1.61,5.67,2.61h.06v55c-.08,1.09-2,2.16-5.73,2.87l-58.34,11a63.52,63.52,0,0,1-20.13,0l-58.34-11c-3.73-.7-5.52-1.79-5.61-2.87a1.12,1.12,0,0,1,0-.26V38.21a.54.54,0,0,1,0-.18v-.17h0c.26-1,2.06-2,5.58-2.61Zm75,44.26L102.25,78.85a62.94,62.94,0,0,1-20.13,0L27.35,68.58V92.77L82.12,103a59.08,59.08,0,0,0,9.44,1.23h.62a56.35,56.35,0,0,0,9.67-1.15l55.28-10.4ZM8.68,91.69a5,5,0,0,0,2.06,4.47c1.14.81,2.84,1.43,6,2.18l.18,0c.68.16,1.43.34,2.35.54l1.07.23,3.32.71-4.75,2.79-3.71-.79-.63-.14c-1.07-.23-2-.44-2.79-.63C2.87,99-.43,96.65-.5,91.83v-.14ZM87.59,53.81c-.42,0-.82.11-1.19.18L28.07,64.93l-.18,0h-.05l.09,0,.14,0L86.4,76c.37.07.77.13,1.19.18Zm9.19,0V76.15C97.2,76.1,97.6,76,98,76L156.3,65l.17,0h.05l-.09,0-.13,0L98,54C97.6,53.92,97.2,53.86,96.78,53.81Zm60.35-12.05L104.8,51.58l52.33,9.82Zm-129.78,0v19.6l52.21-9.8ZM98,27.19a39.29,39.29,0,0,0-11.56,0l-58.33,11-.18,0h-.05l.09,0,.14,0L86.4,49.17a39.29,39.29,0,0,0,11.56,0L156.3,38.23l.17,0h.05l-.09,0-.13,0Zm67.79,1.2,3.71.8.63.13,2.79.64c8.86,2.12,12.16,4.43,12.23,9.25v.15h-9.18a5,5,0,0,0-2.06-4.47c-1.14-.81-2.84-1.43-6-2.18l-.18-.05-2.35-.53-1.07-.24L161,31.18Z" transform="translate(0.5 -23.5)" fill="#fff"/><path d="M278.39,90.59V59.9h23.84V54.28H278.39v-4q0-6.84,16.77-6.85a99.52,99.52,0,0,1,10.3.58V38a138.2,138.2,0,0,0-14.75-.72q-15.54,0-24.13,3.17T258,49.67v4.61H238.4V59.9H258V90.59Zm82.81.5a106.66,106.66,0,0,0,20.5-1.73q8.79-1.73,13.23-5v6.2h20.2V54.28h-20.2v5.91q-4.65-3.24-13.33-5a118,118,0,0,0-43.83.61q-10.31,2.39-16,6.7T316,72.44q0,5.61,5.66,9.83t15.85,6.52A108.33,108.33,0,0,0,361.2,91.09Zm4.85-5.76q-13.94,0-21.71-3.39t-7.78-9.5q0-6.19,7.78-9.69t21.51-3.5q13.93,0,21.5,3.39t7.58,9.65q0,6.19-7.58,9.62T366.05,85.33Zm99.16,5.26V69.91q0-4.81,7.78-7.7t20.7-2.89q11.31,0,16.46,2.17t5.15,6.91V90.59h20.4V68q0-14.55-36.56-14.55a107.65,107.65,0,0,0-20.9,1.83q-9.19,1.84-14,5.3l-1.81-6.27h-19A30.33,30.33,0,0,1,445,64.51V90.59Zm138.75.5a129.07,129.07,0,0,0,15.15-.79V84.39a100.16,100.16,0,0,1-10.7.58q-8.08,0-12.63-1.55c-3-1-4.54-2.8-4.54-5.29V59.9h28.07V54.28H591.24V42.68l-20.4,2.53v9.07H551.05V59.9h19.79V78.7q0,6.06,8.69,9.22T604,91.09Zm78,0A131.29,131.29,0,0,0,708,88.79q11.31-2.31,17.47-6.56t6.16-9.94q0-5.69-6.16-10T708,55.72a149.86,149.86,0,0,0-52.31,0Q644.36,58,638.2,62.31t-6.16,10q0,5.7,6.16,9.94t17.47,6.56A132.38,132.38,0,0,0,681.92,91.09Zm-.2-5.76q-13.94,0-21.51-3.31t-7.57-9.73q0-6.27,7.67-9.65t21.61-3.39q13.74,0,21.31,3.39t7.57,9.65q0,6.42-7.47,9.73T681.72,85.33Zm93.92,5.26V70.06q0-5,6.86-7.85t18.58-2.89q10.11,0,14.65,2.17a7.15,7.15,0,0,1,4.54,6.84V90.59h20.4V70.06q0-5,6.77-7.85t18.48-2.89q10.1,0,14.64,2.17a7.15,7.15,0,0,1,4.54,6.84V90.59h20.4V68q0-14.55-33.93-14.55a99.87,99.87,0,0,0-20.3,1.87q-9,1.88-13.63,5.12-7.27-7-30.9-7a92.12,92.12,0,0,0-19.39,1.8q-8.28,1.8-12.72,5.11l-1.82-6h-19a30.33,30.33,0,0,1,1.62,10.23V90.59Z" transform="translate(0.5 -23.5)" fill="#fff"/></svg>