<svg id="Layer_1" data-name="Layer 1" xmlns="http://www.w3.org/2000/svg" viewBox="0 0 906 131"><path d="M82.12,1.25a41.07,41.07,0,0,1,20.13,0l58.34,17.08c3.44,1,5.33,2.51,5.67,4.06h.06v85.82c-.08,1.69-2,3.37-5.73,4.46l-58.34,17.08a41.07,41.07,0,0,1-20.13,0L23.78,112.67c-3.73-1.09-5.52-2.78-5.61-4.46a2.91,2.91,0,0,1,0-.42V22.94a1.31,1.31,0,0,1,0-.28v-.27h0c.26-1.57,2.06-3,5.58-4.06Zm75,69L102.25,86.33a41.07,41.07,0,0,1-20.13,0l-54.77-16V108L82.12,124a39.11,39.11,0,0,0,9.44,1.92h.62a37,37,0,0,0,9.67-1.78l55.28-16.23ZM8.68,106.34c0,3.29.69,5.45,2.06,7,1.14,1.26,2.84,2.23,6,3.4l.18.07c.68.25,1.43.52,2.35.83l1.07.37,3.32,1.11-4.75,4.35-3.71-1.24-.63-.21c-1.07-.37-2-.68-2.79-1C2.87,117.69-.43,114.08-.5,106.57v-.23ZM87.59,47.26c-.42.08-.82.18-1.19.28L28.07,64.62l-.18,0-.05,0,.09,0,.14,0L86.4,81.83c.37.1.77.2,1.19.28Zm9.19,0V82.11c.42-.08.82-.18,1.18-.28L156.3,64.75l.17,0h.05l-.09,0-.13,0L98,47.54C97.6,47.44,97.2,47.34,96.78,47.26Zm60.35-18.78L104.8,43.79l52.33,15.32Zm-129.78,0V59.07L79.56,43.79ZM98,5.75a25.64,25.64,0,0,0-11.56,0L28.07,22.83l-.18.05-.05,0,.09,0,.14,0L86.4,40A25.36,25.36,0,0,0,98,40L156.3,23l.17-.06h.05l-.09,0-.13,0Zm67.79,1.88,3.71,1.24.63.21c1.07.37,2,.68,2.79,1C181.74,13.38,185,17,185.11,24.5v.23h-9.18c0-3.29-.69-5.45-2.06-7-1.14-1.27-2.84-2.23-6-3.4l-.18-.07c-.68-.26-1.43-.52-2.35-.84l-1.07-.36L161,12Z" transform="translate(0.5 0)" fill="#fff"/><path d="M278.39,104.63V56.77h23.84V48H278.39v-6.3Q278.39,31,295.16,31a63.44,63.44,0,0,1,10.3.9V22.62a89,89,0,0,0-14.75-1.13q-15.54,0-24.13,5T258,40.82V48H238.4v8.76H258v47.86Zm82.81.78a70,70,0,0,0,20.5-2.69q8.79-2.7,13.23-7.75v9.66h20.2V48h-20.2v9.21q-4.65-5.05-13.33-7.81a67.59,67.59,0,0,0-20.4-2.75,69,69,0,0,0-23.43,3.7q-10.31,3.72-16,10.45A23.18,23.18,0,0,0,316,76.32a22.73,22.73,0,0,0,5.66,15.33q5.64,6.57,15.85,10.17A71.25,71.25,0,0,0,361.2,105.41Zm4.85-9q-13.94,0-21.71-5.28a16.91,16.91,0,0,1-7.78-14.83,17.42,17.42,0,0,1,7.78-15.11q7.77-5.46,21.51-5.45,13.93,0,21.5,5.28t7.58,15.05q0,9.66-7.58,15T366.05,96.43Zm99.16,8.2V72.38q0-7.51,7.78-12t20.7-4.49q11.31,0,16.46,3.37T515.3,70v34.6h20.4V69.35q0-22.69-36.56-22.69a70.19,70.19,0,0,0-20.9,2.86q-9.19,2.86-14,8.26L462.39,48h-19A71.63,71.63,0,0,1,445,64v40.67Zm138.75.78a84,84,0,0,0,15.15-1.23V95a66.67,66.67,0,0,1-10.7.89q-8.08,0-12.63-2.41t-4.54-8.26V56.77h28.07V48H591.24V29.92l-20.4,3.93V48H551.05v8.76h19.79V86.09q0,9.43,8.69,14.38T604,105.41Zm78,0A86,86,0,0,0,708,101.82q11.31-3.6,17.47-10.22a22.67,22.67,0,0,0,0-31.07Q719.29,53.86,708,50.25a97.07,97.07,0,0,0-52.31,0q-11.31,3.6-17.47,10.28a22.67,22.67,0,0,0,0,31.07q6.15,6.62,17.47,10.22A86.69,86.69,0,0,0,681.92,105.41Zm-.2-9q-13.94,0-21.51-5.17t-7.57-15.17q0-9.77,7.67-15.05t21.61-5.28q13.74,0,21.31,5.28t7.57,15.05q0,10-7.47,15.17T681.72,96.43Zm93.92,8.2v-32q0-7.76,6.86-12.25t18.58-4.49q10.11,0,14.65,3.37t4.54,10.67v34.72h20.4v-32a14,14,0,0,1,6.77-12.25q6.75-4.48,18.48-4.49,10.1,0,14.64,3.37t4.54,10.67v34.72h20.4V69.35q0-22.69-33.93-22.69a65.45,65.45,0,0,0-20.3,2.92q-9,2.93-13.63,8-7.27-10.89-30.9-10.89a60.2,60.2,0,0,0-19.39,2.81q-8.28,2.81-12.72,8L772.81,48h-19a71.63,71.63,0,0,1,1.62,16v40.67Z" transform="translate(0.5 0)" fill="#fff"/></svg>