<svg id="Layer_1" data-name="Layer 1" xmlns="http://www.w3.org/2000/svg" viewBox="0 0 126 32.71"><path d="M195,160.4a3.27,3.27,0,0,0,2.8,0l8.11-4.26a1.37,1.37,0,0,0,.79-1h0V133.69a1.33,1.33,0,0,0-.8-1.11l-8.11-4.27a3.34,3.34,0,0,0-2.8,0l-8.11,4.27a1.3,1.3,0,0,0-.78,1.11v21.43h0a1.33,1.33,0,0,0,.78,1Zm10.43-17.23-7.63-4a3.27,3.27,0,0,0-2.8,0l-7.62,4v-9.43l7.62-4a3.67,3.67,0,0,1,1.31-.48h.09a3.18,3.18,0,0,1,1.34.45l7.69,4.05Zm-20.64-9a4,4,0,0,1,.28-1.74,2.21,2.21,0,0,1,.83-.85l0,0,.32-.21.15-.09.46-.28-.66-1.08-.51.31-.09.05-.39.25c-1.23.83-1.69,1.73-1.7,3.6v.06Zm11,14.75-.16-.07-8.12-4.26,0,0h0l8.12-4.26.16-.07Zm1.28,0v-8.7l.16.07,8.12,4.26,0,0h0l-8.12,4.26Zm8.39,4.69-7.28-3.82,7.28-3.83Zm-18,0V146l7.26,3.82Zm9.82,5.69a2,2,0,0,1-1.6,0L187.47,155h0l8.12-4.26a1.94,1.94,0,0,1,1.6,0l8.12,4.26h0Zm9.43-.47.52-.31.08-.05.39-.25c1.23-.83,1.69-1.73,1.7-3.6v-.06H208a3.93,3.93,0,0,1-.29,1.74,2.14,2.14,0,0,1-.83.85l0,0-.33.2-.15.1-.46.27Z" transform="translate(-183.5 -128)" fill="#fff"/><path d="M222.29,134.59v11.95h3.31v2.19h-3.31v1.57c0,1.77.77,2.66,2.33,2.66a5,5,0,0,0,1.43-.22v2.33a7.31,7.31,0,0,1-2.05.28,4.45,4.45,0,0,1-3.36-1.24,5,5,0,0,1-1.19-3.59v-1.79h-2.72v-2.19h2.72V134.59Zm11.51-.2a5.77,5.77,0,0,1,2.85.67,4.32,4.32,0,0,1,1.84,1.94v-2.41h2.81v14.14h-2.81v-2.3a4.64,4.64,0,0,1-1.85,1.95,5.74,5.74,0,0,1-2.84.68,6,6,0,0,1-3.26-.92,6.29,6.29,0,0,1-2.23-2.61,9,9,0,0,1-.8-3.87,8.68,8.68,0,0,1,.79-3.83,6,6,0,0,1,2.2-2.54A6,6,0,0,1,233.8,134.39Zm.68,2.24a3.68,3.68,0,0,0-3,1.32,5.71,5.71,0,0,0-1.08,3.71,5.93,5.93,0,0,0,1.08,3.77,4,4,0,0,0,6,0,7.22,7.22,0,0,0,0-7.5A3.56,3.56,0,0,0,234.48,136.63Zm13.79-2v8a4.15,4.15,0,0,0,1.08,3,3.8,3.8,0,0,0,2.88,1.12,2.85,2.85,0,0,0,2.29-.84,4.1,4.1,0,0,0,.71-2.69v-8.64h2.84v8.81q0,5.65-5.08,5.66a5.92,5.92,0,0,1-2.91-.71,4.79,4.79,0,0,1-2-2.06l-.26,2.44h-2.64a31.82,31.82,0,0,0,.23-4V134.59Zm19.29-.2a6.55,6.55,0,0,1,2.11.31V137a5.19,5.19,0,0,0-1.49-.23,2.43,2.43,0,0,0-1.75.61,2.77,2.77,0,0,0-.64,2.06v7.1h3.91v2.19h-3.91v4.51l-2.83-1v-3.53h-2.75v-2.19H263v-7.32a4.93,4.93,0,0,1,1.21-3.6A4.52,4.52,0,0,1,267.56,134.39Zm10.85,0a7.18,7.18,0,0,1,3.62.9,6.1,6.1,0,0,1,2.43,2.55,8.3,8.3,0,0,1,.86,3.87,8.42,8.42,0,0,1-.86,3.89,6,6,0,0,1-2.43,2.56,7.79,7.79,0,0,1-7.27,0,6,6,0,0,1-2.43-2.56,8.29,8.29,0,0,1-.86-3.89,8.18,8.18,0,0,1,.86-3.87,6.1,6.1,0,0,1,2.43-2.55A7.18,7.18,0,0,1,278.41,134.39Zm0,2.24a3.64,3.64,0,0,0-3,1.29,7.22,7.22,0,0,0,0,7.55,3.64,3.64,0,0,0,3,1.32,3.57,3.57,0,0,0,3-1.32,7.34,7.34,0,0,0,0-7.55A3.62,3.62,0,0,0,278.38,136.63Zm13.06-2v8a4.61,4.61,0,0,0,.95,3.06,3.22,3.22,0,0,0,2.59,1.12,2.38,2.38,0,0,0,2-.84,4.39,4.39,0,0,0,.64-2.66v-8.67h2.83v8a4.66,4.66,0,0,0,.94,3.06,3.18,3.18,0,0,0,2.57,1.12,2.38,2.38,0,0,0,2-.84,4.47,4.47,0,0,0,.63-2.66v-8.67h2.84v8.81q0,5.65-4.72,5.66a5.44,5.44,0,0,1-2.82-.73,4.73,4.73,0,0,1-1.9-2c-.67,1.82-2.1,2.72-4.3,2.72a5,5,0,0,1-2.69-.7,4.57,4.57,0,0,1-1.77-2l-.25,2.36h-2.64a32,32,0,0,0,.22-4V134.59Z" transform="translate(-183.5 -128)" fill="#fff"/></svg>