<svg id="Layer_1" data-name="Layer 1" xmlns="http://www.w3.org/2000/svg" viewBox="0 0 124 35.45"><path d="M11.31.34a3,3,0,0,1,2.75,0l8,4.62a1.45,1.45,0,0,1,.77,1.1h0V29.28a1.45,1.45,0,0,1-.78,1.21l-8,4.62a3,3,0,0,1-2.75,0l-8-4.62a1.42,1.42,0,0,1-.76-1.21.2.2,0,0,1,0-.11v-23a.22.22,0,0,1,0-.08V6.06h0A1.39,1.39,0,0,1,3.32,5ZM21.57,19l-7.51,4.34a3,3,0,0,1-2.75,0L3.81,19V29.24l7.5,4.31a3.14,3.14,0,0,0,1.29.52h.09A2.84,2.84,0,0,0,14,33.59l7.56-4.39ZM1.26,28.78a4.56,4.56,0,0,0,.28,1.88,2.21,2.21,0,0,0,.81.92l0,0,.32.23.15.1.45.3-.65,1.18-.51-.34L2.06,33l-.39-.27C.46,31.85,0,30.87,0,28.84v-.06Zm10.8-16-.17.08-8,4.62h0l8,4.62.17.08Zm1.25,0v9.43l.17-.08,8-4.62h0l-8-4.62Zm8.26-5.08-7.16,4.14L21.57,16Zm-17.76,0V16L11,11.85Zm9.67-6.16a1.85,1.85,0,0,0-1.59,0l-8,4.62h0l8,4.63a1.85,1.85,0,0,0,1.59,0l8-4.63h0Zm9.27.5.51.34.09.06c.14.1.27.18.38.27,1.21.89,1.66,1.87,1.67,3.9v.06H24.15a4.74,4.74,0,0,0-.28-1.88,2.24,2.24,0,0,0-.82-.92l0,0-.32-.23-.15-.1-.46-.3Z" transform="translate(0 0)" fill="#fff"/><path d="M38.17,28.31V15.36h3.26V13H38.17v-1.7c0-1.93.77-2.89,2.3-2.89a4.64,4.64,0,0,1,1.41.24V6.12a6.49,6.49,0,0,0-2-.3,4.19,4.19,0,0,0-3.31,1.33,5.77,5.77,0,0,0-1.17,3.9V13H32.7v2.37h2.68v13Zm11.33.22a5.37,5.37,0,0,0,2.81-.73,4.55,4.55,0,0,0,1.81-2.1v2.61h2.76V13H54.12v2.49a4.82,4.82,0,0,0-1.82-2.11,5.16,5.16,0,0,0-2.8-.74,5.38,5.38,0,0,0-3.2,1,6.59,6.59,0,0,0-2.2,2.83,10.54,10.54,0,0,0-.79,4.19,10.24,10.24,0,0,0,.78,4.15,6.22,6.22,0,0,0,2.17,2.75A5.52,5.52,0,0,0,49.5,28.53Zm.67-2.44a3.49,3.49,0,0,1-3-1.42,6.63,6.63,0,0,1-1.07-4,6.9,6.9,0,0,1,1.07-4.09,3.71,3.71,0,0,1,5.88,0,6.78,6.78,0,0,1,1,4.07,6.79,6.79,0,0,1-1,4.06A3.38,3.38,0,0,1,50.17,26.09Zm13.57,2.22V19.59a4.75,4.75,0,0,1,1.06-3.25,3.57,3.57,0,0,1,2.84-1.22,2.66,2.66,0,0,1,2.25.91A4.8,4.8,0,0,1,70.6,19v9.36h2.79V18.77c0-4.1-1.67-6.14-5-6.14a5.33,5.33,0,0,0-2.86.77,4.92,4.92,0,0,0-1.92,2.24L63.35,13h-2.6A37.32,37.32,0,0,1,61,17.31v11Zm19,.22a5.8,5.8,0,0,0,2.07-.34V25.7a4.7,4.7,0,0,1-1.46.24,2.3,2.3,0,0,1-1.73-.65A3.24,3.24,0,0,1,81,23.05V15.36h3.84V13H81V8.1L78.2,9.16V13H75.49v2.37H78.2V23.3a5.64,5.64,0,0,0,1.19,3.89A4.23,4.23,0,0,0,82.73,28.53Zm10.67,0a6.57,6.57,0,0,0,3.57-1,6.41,6.41,0,0,0,2.39-2.76,9.84,9.84,0,0,0,.84-4.2,9.92,9.92,0,0,0-.84-4.21A6.46,6.46,0,0,0,97,13.6a7.09,7.09,0,0,0-7.16,0,6.33,6.33,0,0,0-2.39,2.78,9.77,9.77,0,0,0-.85,4.21,9.69,9.69,0,0,0,.85,4.2,6.28,6.28,0,0,0,2.39,2.76A6.59,6.59,0,0,0,93.4,28.53Zm0-2.44a3.44,3.44,0,0,1-2.94-1.39,6.86,6.86,0,0,1-1-4.11,6.78,6.78,0,0,1,1-4.07,3.47,3.47,0,0,1,3-1.43,3.41,3.41,0,0,1,2.92,1.43,6.86,6.86,0,0,1,1,4.07,6.94,6.94,0,0,1-1,4.11A3.44,3.44,0,0,1,93.37,26.09Zm12.86,2.22V19.65a5.25,5.25,0,0,1,.94-3.31,3,3,0,0,1,2.54-1.22,2.23,2.23,0,0,1,2,.91,5.19,5.19,0,0,1,.62,2.89v9.39h2.8V19.65a5.38,5.38,0,0,1,.92-3.31,3,3,0,0,1,2.53-1.22,2.26,2.26,0,0,1,2,.91,5.28,5.28,0,0,1,.62,2.89v9.39H124V18.77c0-4.1-1.55-6.14-4.64-6.14a5,5,0,0,0-4.65,2.95,4,4,0,0,0-4.23-2.95,4.61,4.61,0,0,0-2.65.76,4.71,4.71,0,0,0-1.74,2.16L105.84,13h-2.6a37.48,37.48,0,0,1,.22,4.32v11Z" transform="translate(0 0)" fill="#fff"/></svg>