<svg id="Layer_1" data-name="Layer 1" xmlns="http://www.w3.org/2000/svg" viewBox="0 0 911.06 313.6"><path d="M19,42,9.5,51.5,0,42l9.5-9.5ZM42.2,19,58.5,35.3,68,25.8,42.2,0,16.3,25.7l9.5,9.5ZM74.8,32.5,65.3,42l9.5,9.5L84.3,42ZM42.2,65,25.8,48.8l-9.5,9.5L42.2,84,68,58.3l-9.5-9.5Zm0-13.5L51.7,42l-9.5-9.5L32.6,42Zm100.5.9v-.1c0-6.2-3.3-9.3-8.7-11.3,3.3-1.8,6.1-4.7,6.1-9.9V31c0-7.2-5.8-11.9-15.3-11.9H103.3V65h22C135.8,65,142.7,60.8,142.7,52.4ZM130,32.7c0,3.4-2.8,4.9-7.3,4.9h-9.4V27.9h10c4.3,0,6.7,1.7,6.7,4.7Zm2.6,18.4c0,3.4-2.7,5-7.2,5H113.3V46h11.8c5.2,0,7.5,1.9,7.5,5ZM164,65V19H153.8V65Zm54.7,0V19h-10V47.4L187,19h-9.4V65h10V35.7L210.1,65Zm56.4,0L255.3,18.6h-9.4L226.1,65h10.4l4.2-10.3h19.6L264.5,65ZM256.6,45.8H244.3l6.1-14.9Zm67,19.2V19h-10V47.4L291.9,19h-9.4V65h10V35.7L314.9,65Zm52.5-7.4-6.5-6.5c-3.6,3.3-6.9,5.4-12.2,5.4-7.9,0-13.4-6.6-13.4-14.5v-.1c0-7.9,5.6-14.3,13.4-14.3,4.6,0,8.3,2,11.8,5.2l6.5-7.4c-4.3-4.2-9.5-7.1-18.2-7.1-14.2,0-24.1,10.7-24.1,23.8v.1a23.31,23.31,0,0,0,23.7,23.7C366.1,65.8,371.4,62.7,376.1,57.6ZM419.5,65V56H394.4V46.3h21.8v-9H394.4V28h24.8V19H384.3V65Z" fill="#f0b90b"/><path d="M454.6,31.1c0-3.1,2.8-5.5,7.5-5.5,4.2,0,8.4,1.6,12.5,4.7l4.4-6.1a25.85,25.85,0,0,0-16.7-5.8c-9.2,0-15.8,5.4-15.8,13.4,0,8.5,5.5,11.4,15.4,13.8,8.6,2,10.4,3.7,10.4,7.1s-3.2,5.8-8.2,5.8c-5.7,0-10.2-2.2-14.6-6l-4.9,5.8a28.56,28.56,0,0,0,19.2,7.4c9.7,0,16.5-5.1,16.5-13.8,0-7.7-5.1-11.2-14.8-13.5C456.7,36.2,454.6,34.7,454.6,31.1Z" fill="#f0b90b"/><path d="M525.9,32V65H534V19h-8.6l-14,21.7L497.4,19h-8.6V65h8V32.2L511,53.7h.3Z" fill="#f0b90b"/><path d="M568.4,18.7h-7.5L540.6,65h8.3l4.7-11.1h21.8L580.1,65h8.6Zm4.1,28H556.6l7.9-18.4Z" fill="#f0b90b"/><path d="M634.4,65,622,47.6c6.5-1.8,11-6.4,11-14,0-9-6.5-14.6-17.1-14.6H595.3V65h8.1V49h10.2l11.3,16Zm-9.7-30.9c0,4.7-3.7,7.7-9.5,7.7H603.3V26.4h11.8C621.2,26.4,624.7,29,624.7,34.1Z" fill="#f0b90b"/><path d="M660.9,26.5h14.6V19H638.1v7.5h14.6V65h8.2V26.5Z" fill="#f0b90b"/><path d="M739.5,57.6l-5.2-5.3c-4,3.7-7.6,6-13.2,6-8.8,0-15.2-7.4-15.2-16.4s6.4-16.3,15.2-16.3c5.3,0,9.2,2.3,12.9,5.7l5.2-6c-4.4-4.2-9.6-7.2-18.1-7.2-14,0-23.8,10.7-23.8,23.8,0,13.3,10,23.7,23.5,23.7C729.4,65.8,734.6,62.6,739.5,57.6Z" fill="#f0b90b"/><path d="M776.8,45.6V65h8.1V19h-8.1V38.1h-22V19h-8.1V65h8.1V45.6Z" fill="#f0b90b"/><path d="M819.3,18.7h-7.5L791.5,65h8.3l4.7-11.1h21.8L831,65h8.6Zm4.1,28H807.5l7.9-18.4Z" fill="#f0b90b"/><path d="M846.6,19V65h8.1V19Z" fill="#f0b90b"/><path d="M898,50.8,873.3,19h-7.5V65h8V32.3L899.2,65H906V19h-8Z" fill="#f0b90b"/><path d="M14.61,91.78a2.91,2.91,0,0,1,2.75,0l8,4.62a1.45,1.45,0,0,1,.77,1.09h0v23.23a1.45,1.45,0,0,1-.78,1.21l-8,4.62a3,3,0,0,1-2.75,0l-8-4.62a1.44,1.44,0,0,1-.76-1.21.2.2,0,0,1,0-.11v-23a.17.17,0,0,1,0-.07v-.08h0a1.37,1.37,0,0,1,.76-1.09Zm10.26,18.67-7.51,4.35a3,3,0,0,1-2.75,0l-7.5-4.34v10.21l7.5,4.32a3.14,3.14,0,0,0,1.29.52H16a3.08,3.08,0,0,0,1.32-.48l7.56-4.39ZM4.56,120.21a4.62,4.62,0,0,0,.28,1.89,2.34,2.34,0,0,0,.81.92l0,0,.32.22.15.1.45.3L6,124.84l-.51-.33-.08-.06L5,124.18c-1.21-.9-1.66-1.87-1.67-3.9v-.07Zm10.8-16-.17.07-8,4.62,0,0h0l8,4.62.17.08Zm1.25,0v9.43l.17-.08,8-4.62h0l-8-4.62Zm8.26-5.09-7.16,4.15,7.16,4.14Zm-17.76,0v8.27l7.15-4.13ZM16.78,93a1.85,1.85,0,0,0-1.59,0l-8,4.62,0,0h0l8,4.62a1.85,1.85,0,0,0,1.59,0l8-4.62h0Zm9.27.51.51.34.09,0,.38.27c1.21.9,1.66,1.87,1.67,3.91v.06H27.45a4.8,4.8,0,0,0-.28-1.89,2.37,2.37,0,0,0-.82-.92l0,0L26,95.08l-.15-.1-.46-.3Z" fill="#fff"/><path d="M87.67,230.4a63.58,63.58,0,0,1,20.14,0l58.33,10.95c3.45.65,5.34,1.61,5.68,2.6h.05v55c-.07,1.09-2,2.16-5.73,2.87l-58.33,10.94a63,63,0,0,1-20.14,0L29.33,301.85c-3.72-.7-5.51-1.79-5.6-2.87a1.22,1.22,0,0,1,0-.27v-54.4a1.09,1.09,0,0,1,0-.18V244h0c.26-1,2.07-1.94,5.58-2.6Zm75,44.25L107.81,285a63,63,0,0,1-20.14,0L32.91,274.68v24.19L87.67,309.1a59.22,59.22,0,0,0,9.44,1.23h.63a56.24,56.24,0,0,0,9.66-1.15l55.29-10.4ZM14.24,297.79a5,5,0,0,0,2.06,4.47c1.13.81,2.84,1.42,5.95,2.18l.17,0,2.35.53,1.08.24,3.32.71-4.76,2.79L20.7,308l-.62-.14-2.79-.64c-8.86-2.12-12.17-4.43-12.23-9.25v-.14ZM93.15,259.9l-1.19.18L33.62,271l-.17,0H33.4l.09,0,.13,0L92,282.07c.36.07.76.13,1.19.18Zm9.18,0v22.35c.43-.05.83-.11,1.19-.18l58.34-10.95.17,0h.05l-.09,0-.13,0-58.34-10.95Zm60.36-12-52.33,9.82,52.33,9.82Zm-129.78,0v19.6l52.21-9.8Zm70.61-14.59a39.29,39.29,0,0,0-11.56,0l-58.34,11-.17,0H33.4l.09,0,.13,0,58.34,11a39.29,39.29,0,0,0,11.56,0l58.34-11,.17,0h.05l-.09,0-.13,0Zm67.79,1.2,3.71.79.62.14,2.79.64c8.87,2.12,12.17,4.43,12.24,9.25v.14h-9.19a5,5,0,0,0-2-4.47c-1.14-.8-2.84-1.42-6-2.18l-.18,0-2.35-.53-1.08-.24-3.31-.71Z" fill="#fff"/><path d="M284,296.69V266h23.83v-5.62H284v-4q0-6.86,16.76-6.85a99.37,99.37,0,0,1,10.3.58v-6a137.87,137.87,0,0,0-14.74-.72q-15.56,0-24.13,3.17t-8.59,9.22v4.61H244V266h19.59v30.69Zm82.81.5a106.66,106.66,0,0,0,20.5-1.73q8.78-1.72,13.23-5v6.2h20.19V260.38H400.49v5.91q-4.65-3.24-13.33-5a103.32,103.32,0,0,0-20.4-1.76,104.92,104.92,0,0,0-23.43,2.37q-10.31,2.39-16.06,6.7t-5.75,9.94q0,5.63,5.65,9.84T343,294.89A109,109,0,0,0,366.76,297.19Zm4.84-5.76q-13.94,0-21.71-3.39t-7.77-9.51q0-6.19,7.77-9.68t21.51-3.5q13.94,0,21.51,3.39t7.58,9.65q0,6.19-7.58,9.62T371.6,291.43Zm99.17,5.26V276q0-4.81,7.78-7.7t20.7-2.89q11.31,0,16.46,2.16t5.15,6.92v22.19h20.4V274.07q0-14.55-36.56-14.55a107.58,107.58,0,0,0-20.9,1.83q-9.19,1.84-14,5.3l-1.82-6.27H449a30.34,30.34,0,0,1,1.61,10.23v26.08Zm138.75.5a129.07,129.07,0,0,0,15.15-.79v-5.91a100.48,100.48,0,0,1-10.71.58q-8.07,0-12.62-1.55c-3-1-4.54-2.8-4.54-5.29V266h28.07v-5.62H596.8v-11.6l-20.4,2.52v9.08H556.6V266h19.8v18.8q0,6.06,8.68,9.22T609.52,297.19Zm78,0a131.94,131.94,0,0,0,26-2.3q11.31-2.31,17.47-6.56t6.16-9.94q0-5.68-6.16-10t-17.47-6.59a131.19,131.19,0,0,0-26-2.3,132.56,132.56,0,0,0-26.26,2.3q-11.31,2.31-17.47,6.59t-6.16,10q0,5.69,6.16,9.94t17.47,6.56A133.32,133.32,0,0,0,687.48,297.19Zm-.2-5.76q-13.93,0-21.51-3.31t-7.58-9.73q0-6.27,7.68-9.65t21.61-3.39q13.74,0,21.31,3.39t7.57,9.65q0,6.41-7.47,9.73T687.28,291.43Zm93.91,5.26V276.16q0-5,6.87-7.85t18.58-2.89q10.1,0,14.64,2.16t4.55,6.85v22.26h20.4V276.16q0-5,6.76-7.85t18.48-2.89q10.1,0,14.64,2.16t4.55,6.85v22.26h20.4V274.07q0-14.55-33.93-14.55a99.87,99.87,0,0,0-20.3,1.87q-9,1.88-13.63,5.11-7.28-7-30.9-7a92.12,92.12,0,0,0-19.39,1.8c-5.53,1.2-9.76,2.9-12.73,5.11l-1.81-6.05h-19A30.33,30.33,0,0,1,761,270.61v26.08Z" fill="#fff"/></svg>